<?xml version="1.0" encoding="UTF-8" standalone="no"?>
<!DOCTYPE svg PUBLIC "-//W3C//DTD SVG 1.1//EN"
 "http://www.w3.org/Graphics/SVG/1.1/DTD/svg11.dtd">
<!-- Generated by graphviz version 2.38.0 (20140413.2041)
 -->
<!-- Title: %3 Pages: 1 -->
<svg width="978pt" height="137pt"
 viewBox="0.00 0.00 978.00 136.95" xmlns="http://www.w3.org/2000/svg" xmlns:xlink="http://www.w3.org/1999/xlink">
<g id="graph0" class="graph" transform="scale(1 1) rotate(0) translate(4 132.953)">
<title>%3</title>
<polygon fill="white" stroke="none" points="-4,4 -4,-132.953 974,-132.953 974,4 -4,4"/>
<!-- A -->
<g id="node1" class="node"><title>A</title>
<polygon fill="lightgray" stroke="black" points="760.5,-128.953 737.5,-128.953 737.5,-110.953 760.5,-110.953 760.5,-128.953"/>
<text text-anchor="middle" x="749" y="-117.753" font-family="Times,serif" font-size="9.00">A</text>
</g>
<!-- A XOR B -->
<g id="node23" class="node"><title>A XOR B</title>
<ellipse fill="lightblue" stroke="black" cx="434" cy="-37.4767" rx="37.4533" ry="37.4533"/>
<text text-anchor="middle" x="434" y="-35.2767" font-family="Times,serif" font-size="9.00">A XOR B</text>
</g>
<!-- A&#45;&gt;A XOR B -->
<g id="edge1" class="edge"><title>A&#45;&gt;A XOR B</title>
<path fill="none" stroke="green" stroke-width="0.5" d="M737.313,-113.742C734.623,-112.694 731.745,-111.69 729,-110.953 621,-81.9864 582.683,-119.218 480,-74.9533 476.366,-73.3867 472.776,-71.4562 469.3,-69.3082"/>
<polygon fill="green" stroke="green" stroke-width="0.5" points="471.17,-66.347 460.937,-63.6042 467.226,-72.1302 471.17,-66.347"/>
</g>
<!-- 1 -->
<g id="node24" class="node"><title>1</title>
<ellipse fill="lightblue" stroke="black" cx="504" cy="-37.4767" rx="14.7" ry="14.7"/>
<text text-anchor="middle" x="504" y="-35.2767" font-family="Times,serif" font-size="9.00">1</text>
</g>
<!-- A&#45;&gt;1 -->
<g id="edge2" class="edge"><title>A&#45;&gt;1</title>
<path fill="none" stroke="green" stroke-width="0.380651" d="M737.294,-113.81C734.605,-112.759 731.732,-111.736 729,-110.953 641.751,-85.9716 603.762,-124.919 528,-74.9533 522.568,-71.3706 518.08,-66.089 514.514,-60.6508"/>
<polygon fill="green" stroke="green" stroke-width="0.380651" points="517.366,-58.5851 509.379,-51.6231 511.281,-62.0459 517.366,-58.5851"/>
</g>
<!-- 2 -->
<g id="node25" class="node"><title>2</title>
<ellipse fill="lightblue" stroke="black" cx="552" cy="-37.4767" rx="14.7" ry="14.7"/>
<text text-anchor="middle" x="552" y="-35.2767" font-family="Times,serif" font-size="9.00">2</text>
</g>
<!-- A&#45;&gt;2 -->
<g id="edge3" class="edge"><title>A&#45;&gt;2</title>
<path fill="none" stroke="red" stroke-width="0.232724" d="M737.267,-114.16C705.433,-101.156 617.006,-65.0325 574.881,-47.8238"/>
<polygon fill="red" stroke="red" stroke-width="0.232724" points="576.044,-44.5182 565.463,-43.9765 573.397,-50.9983 576.044,-44.5182"/>
</g>
<!-- B -->
<g id="node2" class="node"><title>B</title>
<polygon fill="lightgray" stroke="black" points="801.5,-128.953 778.5,-128.953 778.5,-110.953 801.5,-110.953 801.5,-128.953"/>
<text text-anchor="middle" x="790" y="-117.753" font-family="Times,serif" font-size="9.00">B</text>
</g>
<!-- B&#45;&gt;A XOR B -->
<g id="edge4" class="edge"><title>B&#45;&gt;A XOR B</title>
<path fill="none" stroke="green" stroke-width="0.5" d="M778.324,-113.701C775.633,-112.655 772.752,-111.662 770,-110.953 644.224,-78.5685 599.778,-125.168 480,-74.9533 476.35,-73.4233 472.75,-71.5182 469.267,-69.3871"/>
<polygon fill="green" stroke="green" stroke-width="0.5" points="471.133,-66.4239 460.892,-63.709 467.205,-72.2178 471.133,-66.4239"/>
</g>
<!-- B&#45;&gt;1 -->
<g id="edge5" class="edge"><title>B&#45;&gt;1</title>
<path fill="none" stroke="green" stroke-width="0.5" d="M778.311,-113.75C775.621,-112.702 772.744,-111.695 770,-110.953 665.031,-82.5688 619.649,-133.473 528,-74.9533 522.515,-71.4512 518.01,-66.1962 514.445,-60.7577"/>
<polygon fill="green" stroke="green" stroke-width="0.5" points="517.295,-58.688 509.324,-51.7089 511.203,-62.1357 517.295,-58.688"/>
</g>
<!-- B&#45;&gt;2 -->
<g id="edge6" class="edge"><title>B&#45;&gt;2</title>
<path fill="none" stroke="green" stroke-width="0.20133" d="M778.2,-114.098C775.516,-113.032 772.669,-111.93 770,-110.953 700.03,-85.3538 616.095,-58.5224 575.834,-45.8883"/>
<polygon fill="green" stroke="green" stroke-width="0.20133" points="576.717,-42.4972 566.128,-42.8524 574.627,-49.1781 576.717,-42.4972"/>
</g>
<!-- &#45;3 -->
<g id="node3" class="node"><title>&#45;3</title>
<polygon fill="lightgray" stroke="black" points="844,-128.953 820,-128.953 820,-110.953 844,-110.953 844,-128.953"/>
<text text-anchor="middle" x="832" y="-117.753" font-family="Times,serif" font-size="9.00">&#45;3</text>
</g>
<!-- &#45;3&#45;&gt;A XOR B -->
<g id="edge7" class="edge"><title>&#45;3&#45;&gt;A XOR B</title>
<path fill="none" stroke="red" stroke-width="0.5" d="M819.729,-113.679C816.905,-112.634 813.883,-111.647 811,-110.953 667.129,-76.331 616.901,-131.129 480,-74.9533 476.339,-73.451 472.73,-71.5652 469.242,-69.447"/>
<polygon fill="red" stroke="red" stroke-width="0.5" points="471.106,-66.4823 460.859,-63.7884 467.189,-72.2842 471.106,-66.4823"/>
</g>
<!-- &#45;3&#45;&gt;1 -->
<g id="edge8" class="edge"><title>&#45;3&#45;&gt;1</title>
<path fill="none" stroke="green" stroke-width="0.252949" d="M819.72,-113.718C816.896,-112.671 813.876,-111.673 811,-110.953 688.003,-80.168 635.58,-142.055 528,-74.9533 522.479,-71.5094 517.961,-66.2736 514.396,-60.8348"/>
<polygon fill="green" stroke="green" stroke-width="0.252949" points="517.245,-58.7621 509.285,-51.7708 511.148,-62.2005 517.245,-58.7621"/>
</g>
<!-- &#45;3&#45;&gt;2 -->
<g id="edge9" class="edge"><title>&#45;3&#45;&gt;2</title>
<path fill="none" stroke="green" stroke-width="0.5" d="M819.63,-114.027C816.811,-112.964 813.816,-111.882 811,-110.953 725.607,-82.8051 622.136,-55.9955 576.099,-44.4371"/>
<polygon fill="green" stroke="green" stroke-width="0.5" points="576.724,-40.9855 566.174,-41.9584 575.028,-47.777 576.724,-40.9855"/>
</g>
<!-- &#45;4 -->
<g id="node4" class="node"><title>&#45;4</title>
<polygon fill="lightgray" stroke="black" points="886,-128.953 862,-128.953 862,-110.953 886,-110.953 886,-128.953"/>
<text text-anchor="middle" x="874" y="-117.753" font-family="Times,serif" font-size="9.00">&#45;4</text>
</g>
<!-- &#45;4&#45;&gt;A XOR B -->
<g id="edge10" class="edge"><title>&#45;4&#45;&gt;A XOR B</title>
<path fill="none" stroke="green" stroke-width="0.45382" d="M861.735,-113.653C858.911,-112.609 855.887,-111.63 853,-110.953 690.841,-72.9682 634.461,-137.244 480,-74.9533 476.33,-73.4732 472.715,-71.6029 469.222,-69.4949"/>
<polygon fill="green" stroke="green" stroke-width="0.45382" points="471.084,-66.5292 460.833,-63.8521 467.177,-72.3375 471.084,-66.5292"/>
</g>
<!-- &#45;4&#45;&gt;1 -->
<g id="edge11" class="edge"><title>&#45;4&#45;&gt;1</title>
<path fill="none" stroke="red" stroke-width="0.5" d="M861.728,-113.683C858.904,-112.638 855.882,-111.65 853,-110.953 711.74,-76.8111 651.927,-150.863 528,-74.9533 522.231,-71.4194 517.567,-65.916 513.939,-60.2459"/>
<polygon fill="red" stroke="red" stroke-width="0.5" points="516.982,-58.5163 509.081,-51.4577 510.856,-61.9028 516.982,-58.5163"/>
</g>
<!-- &#45;4&#45;&gt;2 -->
<g id="edge12" class="edge"><title>&#45;4&#45;&gt;2</title>
<path fill="none" stroke="green" stroke-width="0.5" d="M861.655,-113.95C858.834,-112.891 855.833,-111.83 853,-110.953 751.851,-79.6495 628.143,-53.6073 576.485,-43.2645"/>
<polygon fill="green" stroke="green" stroke-width="0.5" points="577.079,-39.8143 566.589,-41.2996 575.716,-46.6803 577.079,-39.8143"/>
</g>
<!-- &#45;5 -->
<g id="node5" class="node"><title>&#45;5</title>
<polygon fill="lightgray" stroke="black" points="928,-128.953 904,-128.953 904,-110.953 928,-110.953 928,-128.953"/>
<text text-anchor="middle" x="916" y="-117.753" font-family="Times,serif" font-size="9.00">&#45;5</text>
</g>
<!-- &#45;5&#45;&gt;A XOR B -->
<g id="edge13" class="edge"><title>&#45;5&#45;&gt;A XOR B</title>
<path fill="none" stroke="red" stroke-width="0.5" d="M903.74,-113.632C900.915,-112.59 897.89,-111.616 895,-110.953 714.54,-69.6021 652.034,-143.364 480,-74.9533 476.323,-73.491 472.703,-71.6331 469.207,-69.5333"/>
<polygon fill="red" stroke="red" stroke-width="0.5" points="471.067,-66.5667 460.813,-63.903 467.168,-72.3801 471.067,-66.5667"/>
</g>
<!-- &#45;5&#45;&gt;1 -->
<g id="edge14" class="edge"><title>&#45;5&#45;&gt;1</title>
<path fill="none" stroke="red" stroke-width="0.5" d="M903.735,-113.656C900.91,-112.613 897.886,-111.632 895,-110.953 815.227,-92.2011 598.147,-117.318 528,-74.9533 522.209,-71.4556 517.538,-65.9632 513.911,-60.2921"/>
<polygon fill="red" stroke="red" stroke-width="0.5" points="516.953,-58.5605 509.059,-51.4941 510.824,-61.941 516.953,-58.5605"/>
</g>
<!-- &#45;5&#45;&gt;2 -->
<g id="edge15" class="edge"><title>&#45;5&#45;&gt;2</title>
<path fill="none" stroke="green" stroke-width="0.5" d="M903.672,-113.891C900.851,-112.835 897.845,-111.79 895,-110.953 777.856,-76.492 633.661,-51.5316 576.76,-42.3457"/>
<polygon fill="green" stroke="green" stroke-width="0.5" points="577.004,-38.8405 566.578,-40.7208 575.901,-45.7531 577.004,-38.8405"/>
</g>
<!-- &#45;6 -->
<g id="node6" class="node"><title>&#45;6</title>
<polygon fill="lightgray" stroke="black" points="970,-128.953 946,-128.953 946,-110.953 970,-110.953 970,-128.953"/>
<text text-anchor="middle" x="958" y="-117.753" font-family="Times,serif" font-size="9.00">&#45;6</text>
</g>
<!-- &#45;6&#45;&gt;A XOR B -->
<g id="edge16" class="edge"><title>&#45;6&#45;&gt;A XOR B</title>
<path fill="none" stroke="red" stroke-width="0.5" d="M945.744,-113.615C942.919,-112.574 939.893,-111.604 937,-110.953 738.228,-66.2336 669.617,-149.488 480,-74.9533 476.317,-73.5056 472.693,-71.6578 469.195,-69.5648"/>
<polygon fill="red" stroke="red" stroke-width="0.5" points="471.054,-66.5975 460.796,-63.9448 467.161,-72.4151 471.054,-66.5975"/>
</g>
<!-- &#45;6&#45;&gt;1 -->
<g id="edge17" class="edge"><title>&#45;6&#45;&gt;1</title>
<path fill="none" stroke="red" stroke-width="0.5" d="M945.74,-113.635C942.915,-112.592 939.89,-111.617 937,-110.953 848.078,-90.5182 606.336,-121.732 528,-74.9533 522.191,-71.4846 517.516,-66.001 513.889,-60.3289"/>
<polygon fill="red" stroke="red" stroke-width="0.5" points="516.93,-58.5957 509.042,-51.5232 510.798,-61.9714 516.93,-58.5957"/>
</g>
<!-- &#45;6&#45;&gt;2 -->
<g id="edge18" class="edge"><title>&#45;6&#45;&gt;2</title>
<path fill="none" stroke="green" stroke-width="0.5" d="M945.686,-113.844C942.864,-112.791 939.854,-111.759 937,-110.953 803.619,-73.3162 638.652,-49.6766 576.886,-41.5967"/>
<polygon fill="green" stroke="green" stroke-width="0.5" points="577.271,-38.1175 566.905,-40.3099 576.376,-45.06 577.271,-38.1175"/>
</g>
<!-- &#45;7 -->
<g id="node7" class="node"><title>&#45;7</title>
<polygon fill="lightgray" stroke="black" points="24,-128.953 0,-128.953 0,-110.953 24,-110.953 24,-128.953"/>
<text text-anchor="middle" x="12" y="-117.753" font-family="Times,serif" font-size="9.00">&#45;7</text>
</g>
<!-- &#45;7&#45;&gt;A XOR B -->
<g id="edge19" class="edge"><title>&#45;7&#45;&gt;A XOR B</title>
<path fill="none" stroke="red" stroke-width="0.5" d="M24.3097,-113.829C27.1321,-112.776 30.1434,-111.748 33,-110.953 158.47,-76.04 310.85,-53.8607 386.556,-44.1554"/>
<polygon fill="red" stroke="red" stroke-width="0.5" points="387.237,-47.5972 396.719,-42.8687 386.358,-40.6526 387.237,-47.5972"/>
</g>
<!-- &#45;7&#45;&gt;1 -->
<g id="edge20" class="edge"><title>&#45;7&#45;&gt;1</title>
<path fill="none" stroke="red" stroke-width="0.16213" d="M24.2569,-113.619C27.082,-112.577 30.1078,-111.607 33,-110.953 130.206,-88.9945 394.25,-125.728 480,-74.9533 485.822,-71.5062 490.501,-66.0291 494.127,-60.3564"/>
<polygon fill="red" stroke="red" stroke-width="0.16213" points="497.221,-61.9941 498.971,-51.5449 491.087,-58.622 497.221,-61.9941"/>
</g>
<!-- &#45;7&#45;&gt;2 -->
<g id="edge21" class="edge"><title>&#45;7&#45;&gt;2</title>
<path fill="none" stroke="red" stroke-width="0.396637" d="M24.2531,-113.602C27.0785,-112.561 30.1053,-111.595 33,-110.953 140.673,-87.0688 432.881,-130.778 528,-74.9533 533.835,-71.5288 538.518,-66.0586 542.144,-60.3852"/>
<polygon fill="red" stroke="red" stroke-width="0.396637" points="545.241,-62.0179 546.985,-51.5676 539.104,-58.6495 545.241,-62.0179"/>
</g>
<!-- &#45;8 -->
<g id="node8" class="node"><title>&#45;8</title>
<polygon fill="lightgray" stroke="black" points="66,-128.953 42,-128.953 42,-110.953 66,-110.953 66,-128.953"/>
<text text-anchor="middle" x="54" y="-117.753" font-family="Times,serif" font-size="9.00">&#45;8</text>
</g>
<!-- &#45;8&#45;&gt;A XOR B -->
<g id="edge22" class="edge"><title>&#45;8&#45;&gt;A XOR B</title>
<path fill="none" stroke="red" stroke-width="0.118611" d="M66.322,-113.872C69.1437,-112.817 72.1517,-111.777 75,-110.953 184.804,-79.1893 317.426,-56.2963 386.671,-45.4791"/>
<polygon fill="red" stroke="red" stroke-width="0.118611" points="387.475,-48.8965 396.822,-43.9091 386.405,-41.9787 387.475,-48.8965"/>
</g>
<!-- &#45;8&#45;&gt;1 -->
<g id="edge23" class="edge"><title>&#45;8&#45;&gt;1</title>
<path fill="none" stroke="green" stroke-width="0.5" d="M66.2609,-113.637C69.0859,-112.594 72.1105,-111.619 75,-110.953 163.051,-90.6786 402.444,-121.311 480,-74.9533 485.807,-71.4821 490.482,-65.9977 494.109,-60.3257"/>
<polygon fill="green" stroke="green" stroke-width="0.5" points="497.2,-61.9688 498.957,-51.5207 491.068,-58.5927 497.2,-61.9688"/>
</g>
<!-- &#45;8&#45;&gt;2 -->
<g id="edge24" class="edge"><title>&#45;8&#45;&gt;2</title>
<path fill="none" stroke="green" stroke-width="0.486313" d="M66.2563,-113.617C69.0815,-112.575 72.1074,-111.605 75,-110.953 173.514,-88.7539 441.079,-126.359 528,-74.9533 533.823,-71.5093 538.503,-66.0331 542.13,-60.3603"/>
<polygon fill="green" stroke="green" stroke-width="0.486313" points="545.224,-61.9974 546.973,-51.548 539.089,-58.6257 545.224,-61.9974"/>
</g>
<!-- &#45;9 -->
<g id="node9" class="node"><title>&#45;9</title>
<polygon fill="lightgray" stroke="black" points="108,-128.953 84,-128.953 84,-110.953 108,-110.953 108,-128.953"/>
<text text-anchor="middle" x="96" y="-117.753" font-family="Times,serif" font-size="9.00">&#45;9</text>
</g>
<!-- &#45;9&#45;&gt;A XOR B -->
<g id="edge25" class="edge"><title>&#45;9&#45;&gt;A XOR B</title>
<path fill="none" stroke="red" stroke-width="0.349735" d="M108.338,-113.926C111.159,-112.868 114.162,-111.814 117,-110.953 211.422,-82.3261 324.667,-59.0068 387.026,-47.0904"/>
<polygon fill="red" stroke="red" stroke-width="0.349735" points="387.783,-50.5093 396.955,-45.2073 386.478,-43.6319 387.783,-50.5093"/>
</g>
<!-- &#45;9&#45;&gt;1 -->
<g id="edge26" class="edge"><title>&#45;9&#45;&gt;1</title>
<path fill="none" stroke="green" stroke-width="0.5" d="M108.266,-113.659C111.091,-112.615 114.114,-111.633 117,-110.953 195.902,-92.3613 410.633,-116.898 480,-74.9533 485.79,-71.4525 490.459,-65.9592 494.086,-60.2881"/>
<polygon fill="green" stroke="green" stroke-width="0.5" points="497.174,-61.9377 498.939,-51.491 491.044,-58.5567 497.174,-61.9377"/>
</g>
<!-- &#45;9&#45;&gt;2 -->
<g id="edge27" class="edge"><title>&#45;9&#45;&gt;2</title>
<path fill="none" stroke="red" stroke-width="0.226845" d="M108.26,-113.634C111.085,-112.591 114.11,-111.617 117,-110.953 206.358,-90.4381 449.274,-121.942 528,-74.9533 533.81,-71.4858 538.485,-66.0026 542.112,-60.3305"/>
<polygon fill="red" stroke="red" stroke-width="0.226845" points="545.203,-61.9727 546.959,-51.5244 539.071,-58.5972 545.203,-61.9727"/>
</g>
<!-- &#45;10 -->
<g id="node10" class="node"><title>&#45;10</title>
<polygon fill="lightgray" stroke="black" points="155.5,-128.953 126.5,-128.953 126.5,-110.953 155.5,-110.953 155.5,-128.953"/>
<text text-anchor="middle" x="141" y="-117.753" font-family="Times,serif" font-size="9.00">&#45;10</text>
</g>
<!-- &#45;10&#45;&gt;A XOR B -->
<g id="edge28" class="edge"><title>&#45;10&#45;&gt;A XOR B</title>
<path fill="none" stroke="red" stroke-width="0.5" d="M155.548,-113.715C158.341,-112.76 161.252,-111.799 164,-110.953 241.79,-87.0185 333.521,-63.3417 387.551,-49.8551"/>
<polygon fill="red" stroke="red" stroke-width="0.5" points="388.654,-53.1874 397.514,-47.3771 386.964,-46.3943 388.654,-53.1874"/>
</g>
<!-- &#45;10&#45;&gt;1 -->
<g id="edge29" class="edge"><title>&#45;10&#45;&gt;1</title>
<path fill="none" stroke="red" stroke-width="0.5" d="M155.954,-113.218C158.605,-112.355 161.362,-111.555 164,-110.953 301.819,-79.5426 359.578,-148.974 480,-74.9533 485.764,-71.4104 490.426,-65.9043 494.054,-60.2345"/>
<polygon fill="red" stroke="red" stroke-width="0.5" points="497.136,-61.8934 498.913,-51.4487 491.01,-58.5053 497.136,-61.8934"/>
</g>
<!-- &#45;10&#45;&gt;2 -->
<g id="edge30" class="edge"><title>&#45;10&#45;&gt;2</title>
<path fill="none" stroke="green" stroke-width="0.5" d="M155.947,-113.185C158.599,-112.326 161.358,-111.535 164,-110.953 243.383,-93.48 458.438,-117.003 528,-74.9533 533.79,-71.4533 538.46,-65.9602 542.087,-60.2891"/>
<polygon fill="green" stroke="green" stroke-width="0.5" points="545.174,-61.9385 546.939,-51.4918 539.045,-58.5577 545.174,-61.9385"/>
</g>
<!-- &#45;11 -->
<g id="node11" class="node"><title>&#45;11</title>
<polygon fill="lightgray" stroke="black" points="202.5,-128.953 173.5,-128.953 173.5,-110.953 202.5,-110.953 202.5,-128.953"/>
<text text-anchor="middle" x="188" y="-117.753" font-family="Times,serif" font-size="9.00">&#45;11</text>
</g>
<!-- &#45;11&#45;&gt;A XOR B -->
<g id="edge31" class="edge"><title>&#45;11&#45;&gt;A XOR B</title>
<path fill="none" stroke="red" stroke-width="0.5" d="M202.585,-113.83C205.375,-112.864 208.275,-111.87 211,-110.953 272.34,-90.3199 343.494,-67.3631 388.618,-52.9257"/>
<polygon fill="red" stroke="red" stroke-width="0.5" points="389.934,-56.1795 398.394,-49.8009 387.803,-49.5118 389.934,-56.1795"/>
</g>
<!-- &#45;11&#45;&gt;1 -->
<g id="edge32" class="edge"><title>&#45;11&#45;&gt;1</title>
<path fill="none" stroke="red" stroke-width="0.5" d="M202.965,-113.262C205.614,-112.394 208.368,-111.58 211,-110.953 328.337,-82.998 377.863,-139.122 480,-74.9533 485.51,-71.4915 490.024,-66.2497 493.589,-60.811"/>
<polygon fill="red" stroke="red" stroke-width="0.5" points="496.835,-62.1805 498.703,-51.7517 490.74,-58.7392 496.835,-62.1805"/>
</g>
<!-- &#45;11&#45;&gt;2 -->
<g id="edge33" class="edge"><title>&#45;11&#45;&gt;2</title>
<path fill="none" stroke="green" stroke-width="0.5" d="M202.954,-113.217C205.605,-112.354 208.362,-111.554 211,-110.953 349.255,-79.4689 407.188,-149.184 528,-74.9533 533.764,-71.4114 538.427,-65.9056 542.054,-60.2358"/>
<polygon fill="green" stroke="green" stroke-width="0.5" points="545.137,-61.8944 546.914,-51.4497 539.011,-58.5066 545.137,-61.8944"/>
</g>
<!-- &#45;12 -->
<g id="node12" class="node"><title>&#45;12</title>
<polygon fill="lightgray" stroke="black" points="249.5,-128.953 220.5,-128.953 220.5,-110.953 249.5,-110.953 249.5,-128.953"/>
<text text-anchor="middle" x="235" y="-117.753" font-family="Times,serif" font-size="9.00">&#45;12</text>
</g>
<!-- &#45;12&#45;&gt;A XOR B -->
<g id="edge34" class="edge"><title>&#45;12&#45;&gt;A XOR B</title>
<path fill="none" stroke="red" stroke-width="0.148255" d="M249.633,-113.036C278.817,-101.233 345.287,-74.3528 389.916,-56.3043"/>
<polygon fill="red" stroke="red" stroke-width="0.148255" points="391.406,-59.4774 399.364,-52.4835 388.782,-52.9879 391.406,-59.4774"/>
</g>
<!-- &#45;12&#45;&gt;1 -->
<g id="edge35" class="edge"><title>&#45;12&#45;&gt;1</title>
<path fill="none" stroke="red" stroke-width="0.142888" d="M249.98,-113.323C252.628,-112.449 255.377,-111.617 258,-110.953 354.904,-86.4419 396.108,-129.296 480,-74.9533 485.462,-71.4154 489.959,-66.1486 493.525,-60.7103"/>
<polygon fill="red" stroke="red" stroke-width="0.142888" points="496.763,-62.0959 498.652,-51.6708 490.674,-58.6424 496.763,-62.0959"/>
</g>
<!-- &#45;12&#45;&gt;2 -->
<g id="edge36" class="edge"><title>&#45;12&#45;&gt;2</title>
<path fill="none" stroke="red" stroke-width="0.5" d="M249.964,-113.26C252.614,-112.393 255.368,-111.58 258,-110.953 375.773,-82.9245 425.475,-139.332 528,-74.9533 533.511,-71.4928 538.025,-66.2515 541.59,-60.8128"/>
<polygon fill="red" stroke="red" stroke-width="0.5" points="544.836,-62.182 546.704,-51.7531 538.741,-58.7409 544.836,-62.182"/>
</g>
<!-- &#45;13 -->
<g id="node13" class="node"><title>&#45;13</title>
<polygon fill="lightgray" stroke="black" points="296.5,-128.953 267.5,-128.953 267.5,-110.953 296.5,-110.953 296.5,-128.953"/>
<text text-anchor="middle" x="282" y="-117.753" font-family="Times,serif" font-size="9.00">&#45;13</text>
</g>
<!-- &#45;13&#45;&gt;A XOR B -->
<g id="edge37" class="edge"><title>&#45;13&#45;&gt;A XOR B</title>
<path fill="none" stroke="green" stroke-width="0.5" d="M296.574,-111.237C318.351,-99.7072 360.225,-77.5372 392.053,-60.6857"/>
<polygon fill="green" stroke="green" stroke-width="0.5" points="393.956,-63.6385 401.156,-55.8661 390.68,-57.4521 393.956,-63.6385"/>
</g>
<!-- &#45;13&#45;&gt;1 -->
<g id="edge38" class="edge"><title>&#45;13&#45;&gt;1</title>
<path fill="none" stroke="red" stroke-width="0.167457" d="M296.509,-113.582C299.306,-112.639 302.228,-111.717 305,-110.953 381.555,-89.8642 414.278,-119.518 480,-74.9533 485.386,-71.3012 489.858,-65.9968 493.425,-60.5589"/>
<polygon fill="red" stroke="red" stroke-width="0.167457" points="496.65,-61.9685 498.571,-51.5493 490.572,-58.4962 496.65,-61.9685"/>
</g>
<!-- &#45;13&#45;&gt;2 -->
<g id="edge39" class="edge"><title>&#45;13&#45;&gt;2</title>
<path fill="none" stroke="red" stroke-width="0.5" d="M296.979,-113.321C299.627,-112.447 302.377,-111.616 305,-110.953 402.338,-86.3688 443.72,-129.505 528,-74.9533 533.463,-71.4173 537.961,-66.1512 541.527,-60.7128"/>
<polygon fill="red" stroke="red" stroke-width="0.5" points="544.765,-62.098 546.653,-51.6729 538.676,-58.6448 544.765,-62.098"/>
</g>
<!-- &#45;14 -->
<g id="node14" class="node"><title>&#45;14</title>
<polygon fill="lightgray" stroke="black" points="343.5,-128.953 314.5,-128.953 314.5,-110.953 343.5,-110.953 343.5,-128.953"/>
<text text-anchor="middle" x="329" y="-117.753" font-family="Times,serif" font-size="9.00">&#45;14</text>
</g>
<!-- &#45;14&#45;&gt;A XOR B -->
<g id="edge40" class="edge"><title>&#45;14&#45;&gt;A XOR B</title>
<path fill="none" stroke="red" stroke-width="0.5" d="M339.452,-110.943C352.673,-100.809 376.162,-82.8063 396.419,-67.2803"/>
<polygon fill="red" stroke="red" stroke-width="0.5" points="398.765,-69.8922 404.573,-61.031 394.507,-64.3363 398.765,-69.8922"/>
</g>
<!-- &#45;14&#45;&gt;1 -->
<g id="edge41" class="edge"><title>&#45;14&#45;&gt;1</title>
<path fill="none" stroke="red" stroke-width="0.377555" d="M343.556,-113.741C346.349,-112.784 349.257,-111.815 352,-110.953 408.378,-93.2381 432.301,-109.841 480,-74.9533 485.252,-71.1116 489.681,-65.7447 493.247,-60.3076"/>
<polygon fill="red" stroke="red" stroke-width="0.377555" points="496.453,-61.7565 498.429,-51.3477 490.393,-58.252 496.453,-61.7565"/>
</g>
<!-- &#45;14&#45;&gt;2 -->
<g id="edge42" class="edge"><title>&#45;14&#45;&gt;2</title>
<path fill="none" stroke="red" stroke-width="0.5" d="M343.509,-113.58C346.306,-112.637 349.228,-111.715 352,-110.953 428.986,-89.7917 461.893,-119.726 528,-74.9533 533.388,-71.3042 537.861,-66.0008 541.427,-60.5629"/>
<polygon fill="red" stroke="red" stroke-width="0.5" points="544.653,-61.9719 546.574,-51.5525 538.575,-58.5001 544.653,-61.9719"/>
</g>
<!-- &#45;15 -->
<g id="node15" class="node"><title>&#45;15</title>
<polygon fill="lightgray" stroke="black" points="390.5,-128.953 361.5,-128.953 361.5,-110.953 390.5,-110.953 390.5,-128.953"/>
<text text-anchor="middle" x="376" y="-117.753" font-family="Times,serif" font-size="9.00">&#45;15</text>
</g>
<!-- &#45;15&#45;&gt;A XOR B -->
<g id="edge43" class="edge"><title>&#45;15&#45;&gt;A XOR B</title>
<path fill="none" stroke="green" stroke-width="0.5" d="M381.773,-110.943C387.602,-102.855 397.045,-89.7531 406.309,-76.8992"/>
<polygon fill="green" stroke="green" stroke-width="0.5" points="409.323,-78.7024 412.331,-68.5433 403.644,-74.6096 409.323,-78.7024"/>
</g>
<!-- &#45;15&#45;&gt;1 -->
<g id="edge44" class="edge"><title>&#45;15&#45;&gt;1</title>
<path fill="none" stroke="green" stroke-width="0.489872" d="M390.894,-113.208C417.885,-102.715 472.77,-80.9763 480,-74.9533 484.925,-70.8505 489.215,-65.4781 492.753,-60.1226"/>
<polygon fill="green" stroke="green" stroke-width="0.489872" points="495.866,-61.7355 497.974,-51.3526 489.851,-58.1547 495.866,-61.7355"/>
</g>
<!-- &#45;15&#45;&gt;2 -->
<g id="edge45" class="edge"><title>&#45;15&#45;&gt;2</title>
<path fill="none" stroke="red" stroke-width="0.5" d="M390.555,-113.737C393.348,-112.779 396.256,-111.812 399,-110.953 455.805,-93.1672 479.92,-110.046 528,-74.9533 533.256,-71.1169 537.686,-65.7518 541.253,-60.3146"/>
<polygon fill="red" stroke="red" stroke-width="0.5" points="544.458,-61.7624 546.433,-51.3533 538.398,-58.2589 544.458,-61.7624"/>
</g>
<!-- &#45;16 -->
<g id="node16" class="node"><title>&#45;16</title>
<polygon fill="lightgray" stroke="black" points="437.5,-128.953 408.5,-128.953 408.5,-110.953 437.5,-110.953 437.5,-128.953"/>
<text text-anchor="middle" x="423" y="-117.753" font-family="Times,serif" font-size="9.00">&#45;16</text>
</g>
<!-- &#45;16&#45;&gt;A XOR B -->
<g id="edge46" class="edge"><title>&#45;16&#45;&gt;A XOR B</title>
<path fill="none" stroke="red" stroke-width="0.5" d="M424.095,-110.943C424.967,-104.562 426.266,-95.0602 427.638,-85.0217"/>
<polygon fill="red" stroke="red" stroke-width="0.5" points="431.135,-85.2818 429.021,-74.8999 424.199,-84.3337 431.135,-85.2818"/>
</g>
<!-- &#45;16&#45;&gt;1 -->
<g id="edge47" class="edge"><title>&#45;16&#45;&gt;1</title>
<path fill="none" stroke="red" stroke-width="0.5" d="M435.76,-110.914C448.005,-102.803 466.57,-89.4368 480,-74.9533 484.293,-70.324 488.332,-64.8464 491.829,-59.5622"/>
<polygon fill="red" stroke="red" stroke-width="0.5" points="494.825,-61.3724 497.151,-51.036 488.887,-57.666 494.825,-61.3724"/>
</g>
<!-- &#45;16&#45;&gt;2 -->
<g id="edge48" class="edge"><title>&#45;16&#45;&gt;2</title>
<path fill="none" stroke="green" stroke-width="0.5" d="M437.614,-113.377C464.709,-102.96 520.662,-81.0445 528,-74.9533 532.932,-70.8589 537.225,-65.4894 540.762,-60.1339"/>
<polygon fill="green" stroke="green" stroke-width="0.5" points="543.876,-61.7453 545.982,-51.3618 537.86,-58.166 543.876,-61.7453"/>
</g>
<!-- &#45;17 -->
<g id="node17" class="node"><title>&#45;17</title>
<polygon fill="lightgray" stroke="black" points="484.5,-128.953 455.5,-128.953 455.5,-110.953 484.5,-110.953 484.5,-128.953"/>
<text text-anchor="middle" x="470" y="-117.753" font-family="Times,serif" font-size="9.00">&#45;17</text>
</g>
<!-- &#45;17&#45;&gt;A XOR B -->
<g id="edge49" class="edge"><title>&#45;17&#45;&gt;A XOR B</title>
<path fill="none" stroke="green" stroke-width="0.5" d="M466.417,-110.943C463.189,-103.727 458.177,-92.5223 453.05,-81.0625"/>
<polygon fill="green" stroke="green" stroke-width="0.5" points="456.225,-79.5878 448.946,-71.8887 449.835,-82.4462 456.225,-79.5878"/>
</g>
<!-- &#45;17&#45;&gt;1 -->
<g id="edge50" class="edge"><title>&#45;17&#45;&gt;1</title>
<path fill="none" stroke="red" stroke-width="0.5" d="M473.384,-110.943C478.253,-99.4193 487.421,-77.7195 494.46,-61.058"/>
<polygon fill="red" stroke="red" stroke-width="0.5" points="497.842,-62.0447 498.51,-51.4709 491.394,-59.3204 497.842,-62.0447"/>
</g>
<!-- &#45;17&#45;&gt;2 -->
<g id="edge51" class="edge"><title>&#45;17&#45;&gt;2</title>
<path fill="none" stroke="red" stroke-width="0.472181" d="M483.472,-110.649C495.941,-102.543 514.533,-89.3548 528,-74.9533 532.312,-70.3421 536.358,-64.8707 539.856,-59.5869"/>
<polygon fill="red" stroke="red" stroke-width="0.472181" points="542.853,-61.3943 545.173,-51.0565 536.913,-57.6914 542.853,-61.3943"/>
</g>
<!-- &#45;18 -->
<g id="node18" class="node"><title>&#45;18</title>
<polygon fill="lightgray" stroke="black" points="531.5,-128.953 502.5,-128.953 502.5,-110.953 531.5,-110.953 531.5,-128.953"/>
<text text-anchor="middle" x="517" y="-117.753" font-family="Times,serif" font-size="9.00">&#45;18</text>
</g>
<!-- &#45;18&#45;&gt;A XOR B -->
<g id="edge52" class="edge"><title>&#45;18&#45;&gt;A XOR B</title>
<path fill="none" stroke="green" stroke-width="0.42957" d="M508.738,-110.943C499.154,-101.649 482.743,-85.7376 467.736,-71.1874"/>
<polygon fill="green" stroke="green" stroke-width="0.42957" points="470.134,-68.6373 460.518,-64.1889 465.261,-73.6628 470.134,-68.6373"/>
</g>
<!-- &#45;18&#45;&gt;1 -->
<g id="edge53" class="edge"><title>&#45;18&#45;&gt;1</title>
<path fill="none" stroke="green" stroke-width="0.157169" d="M515.706,-110.943C513.894,-99.7237 510.523,-78.8588 507.863,-62.3886"/>
<polygon fill="green" stroke="green" stroke-width="0.157169" points="511.29,-61.6593 506.24,-52.3454 504.38,-62.7756 511.29,-61.6593"/>
</g>
<!-- &#45;18&#45;&gt;2 -->
<g id="edge54" class="edge"><title>&#45;18&#45;&gt;2</title>
<path fill="none" stroke="red" stroke-width="0.5" d="M520.484,-110.943C525.495,-99.4193 534.933,-77.7195 542.179,-61.058"/>
<polygon fill="red" stroke="red" stroke-width="0.5" points="545.57,-62.0371 546.349,-51.4709 539.151,-59.2453 545.57,-62.0371"/>
</g>
<!-- &#45;19 -->
<g id="node19" class="node"><title>&#45;19</title>
<polygon fill="lightgray" stroke="black" points="578.5,-128.953 549.5,-128.953 549.5,-110.953 578.5,-110.953 578.5,-128.953"/>
<text text-anchor="middle" x="564" y="-117.753" font-family="Times,serif" font-size="9.00">&#45;19</text>
</g>
<!-- &#45;19&#45;&gt;A XOR B -->
<g id="edge55" class="edge"><title>&#45;19&#45;&gt;A XOR B</title>
<path fill="none" stroke="red" stroke-width="0.103037" d="M549.267,-112.274C532.117,-104.267 503.188,-90.0288 480,-74.9533 476.913,-72.9464 473.781,-70.7795 470.679,-68.5378"/>
<polygon fill="red" stroke="red" stroke-width="0.103037" points="472.691,-65.6721 462.586,-62.4875 468.5,-71.2785 472.691,-65.6721"/>
</g>
<!-- &#45;19&#45;&gt;1 -->
<g id="edge56" class="edge"><title>&#45;19&#45;&gt;1</title>
<path fill="none" stroke="green" stroke-width="0.5" d="M556.833,-110.724C549.37,-102.035 537.47,-87.8368 528,-74.9533 524.261,-69.8664 520.415,-64.2288 516.927,-58.9372"/>
<polygon fill="green" stroke="green" stroke-width="0.5" points="519.849,-57.0103 511.477,-50.5168 513.972,-60.8137 519.849,-57.0103"/>
</g>
<!-- &#45;19&#45;&gt;2 -->
<g id="edge57" class="edge"><title>&#45;19&#45;&gt;2</title>
<path fill="none" stroke="green" stroke-width="0.159416" d="M562.806,-110.943C561.133,-99.7237 558.021,-78.8588 555.566,-62.3886"/>
<polygon fill="green" stroke="green" stroke-width="0.159416" points="559.005,-61.7199 554.068,-52.3454 552.081,-62.7523 559.005,-61.7199"/>
</g>
<!-- &#45;20 -->
<g id="node20" class="node"><title>&#45;20</title>
<polygon fill="lightgray" stroke="black" points="625.5,-128.953 596.5,-128.953 596.5,-110.953 625.5,-110.953 625.5,-128.953"/>
<text text-anchor="middle" x="611" y="-117.753" font-family="Times,serif" font-size="9.00">&#45;20</text>
</g>
<!-- &#45;20&#45;&gt;A XOR B -->
<g id="edge58" class="edge"><title>&#45;20&#45;&gt;A XOR B</title>
<path fill="none" stroke="red" stroke-width="0.5" d="M596.409,-113.846C593.62,-112.879 590.721,-111.88 588,-110.953 540.105,-94.642 524.497,-99.037 480,-74.9533 476.569,-73.0961 473.135,-70.9787 469.776,-68.7204"/>
<polygon fill="red" stroke="red" stroke-width="0.5" points="471.794,-65.8608 461.626,-62.8847 467.719,-71.5523 471.794,-65.8608"/>
</g>
<!-- &#45;20&#45;&gt;1 -->
<g id="edge59" class="edge"><title>&#45;20&#45;&gt;1</title>
<path fill="none" stroke="green" stroke-width="0.463497" d="M596.448,-113.829C578.733,-107.048 548.63,-93.7203 528,-74.9533 523.258,-70.6397 519.03,-65.1958 515.494,-59.8389"/>
<polygon fill="green" stroke="green" stroke-width="0.463497" points="518.394,-57.8707 510.228,-51.1209 512.403,-61.4902 518.394,-57.8707"/>
</g>
<!-- &#45;20&#45;&gt;2 -->
<g id="edge60" class="edge"><title>&#45;20&#45;&gt;2</title>
<path fill="none" stroke="green" stroke-width="0.332886" d="M605.127,-110.943C596.192,-98.7547 578.91,-75.1823 566.48,-58.228"/>
<polygon fill="green" stroke="green" stroke-width="0.332886" points="569.228,-56.056 560.493,-50.0605 563.582,-60.1948 569.228,-56.056"/>
</g>
<!-- &#45;21 -->
<g id="node21" class="node"><title>&#45;21</title>
<polygon fill="lightgray" stroke="black" points="672.5,-128.953 643.5,-128.953 643.5,-110.953 672.5,-110.953 672.5,-128.953"/>
<text text-anchor="middle" x="658" y="-117.753" font-family="Times,serif" font-size="9.00">&#45;21</text>
</g>
<!-- &#45;21&#45;&gt;A XOR B -->
<g id="edge61" class="edge"><title>&#45;21&#45;&gt;A XOR B</title>
<path fill="none" stroke="red" stroke-width="0.5" d="M643.475,-113.639C640.679,-112.691 637.762,-111.752 635,-110.953 567.061,-91.3086 543.703,-105.672 480,-74.9533 476.486,-73.2586 472.994,-71.255 469.596,-69.0729"/>
<polygon fill="red" stroke="red" stroke-width="0.5" points="471.592,-66.1978 461.386,-63.3552 467.592,-71.9422 471.592,-66.1978"/>
</g>
<!-- &#45;21&#45;&gt;1 -->
<g id="edge62" class="edge"><title>&#45;21&#45;&gt;1</title>
<path fill="none" stroke="green" stroke-width="0.194663" d="M643.407,-113.852C640.618,-112.885 637.72,-111.884 635,-110.953 587.527,-94.7113 567.739,-105.586 528,-74.9533 522.846,-70.9805 518.45,-65.5705 514.883,-60.1338"/>
<polygon fill="green" stroke="green" stroke-width="0.194663" points="517.738,-58.0818 509.675,-51.2082 511.692,-61.6094 517.738,-58.0818"/>
</g>
<!-- &#45;21&#45;&gt;2 -->
<g id="edge63" class="edge"><title>&#45;21&#45;&gt;2</title>
<path fill="none" stroke="green" stroke-width="0.5" d="M647.449,-110.943C629.789,-97.5352 593.984,-70.3515 571.598,-53.3558"/>
<polygon fill="green" stroke="green" stroke-width="0.5" points="573.548,-50.4416 563.467,-47.1823 569.315,-56.0168 573.548,-50.4416"/>
</g>
<!-- &#45;22 -->
<g id="node22" class="node"><title>&#45;22</title>
<polygon fill="lightgray" stroke="black" points="719.5,-128.953 690.5,-128.953 690.5,-110.953 719.5,-110.953 719.5,-128.953"/>
<text text-anchor="middle" x="705" y="-117.753" font-family="Times,serif" font-size="9.00">&#45;22</text>
</g>
<!-- &#45;22&#45;&gt;A XOR B -->
<g id="edge64" class="edge"><title>&#45;22&#45;&gt;A XOR B</title>
<path fill="none" stroke="red" stroke-width="0.5" d="M690.011,-113.357C687.364,-112.479 684.618,-111.637 682,-110.953 593.769,-87.9018 563.14,-112.421 480,-74.9533 476.544,-73.396 473.122,-71.5215 469.796,-69.4547"/>
<polygon fill="red" stroke="red" stroke-width="0.5" points="471.492,-66.3745 461.262,-63.6206 467.542,-72.1534 471.492,-66.3745"/>
</g>
<!-- &#45;22&#45;&gt;1 -->
<g id="edge65" class="edge"><title>&#45;22&#45;&gt;1</title>
<path fill="none" stroke="red" stroke-width="0.5" d="M690.474,-113.642C687.678,-112.694 684.761,-111.754 682,-110.953 614.49,-91.3805 585.643,-115.177 528,-74.9533 522.663,-71.2294 518.207,-65.9014 514.641,-60.4638"/>
<polygon fill="red" stroke="red" stroke-width="0.5" points="517.494,-58.4041 509.481,-51.473 511.423,-61.8884 517.494,-58.4041"/>
</g>
<!-- &#45;22&#45;&gt;2 -->
<g id="edge66" class="edge"><title>&#45;22&#45;&gt;2</title>
<path fill="none" stroke="green" stroke-width="0.372613" d="M690.33,-111.237C663.352,-97.047 605.735,-66.7407 574.035,-50.067"/>
<polygon fill="green" stroke="green" stroke-width="0.372613" points="575.572,-46.9207 565.092,-45.3631 572.313,-53.116 575.572,-46.9207"/>
</g>
</g>
</svg>
